<svg width="668" height="668" viewBox="0 0 668 668" fill="none" xmlns="http://www.w3.org/2000/svg">
<path d="M143.992 100.667H634L567.333 334H179.89M600.667 467.333H200.667L134 34H34M234 600.667C234 619.077 219.076 634 200.667 634C182.257 634 167.333 619.077 167.333 600.667C167.333 582.257 182.257 567.333 200.667 567.333C219.076 567.333 234 582.257 234 600.667ZM600.667 600.667C600.667 619.077 585.743 634 567.333 634C548.923 634 534 619.077 534 600.667C534 582.257 548.923 567.333 567.333 567.333C585.743 567.333 600.667 582.257 600.667 600.667Z" stroke="black" stroke-width="66.6667" stroke-linecap="round" stroke-linejoin="round"/>
</svg>
