<svg width="138" height="76" viewBox="0 0 138 76" fill="none" xmlns="http://www.w3.org/2000/svg">
<path d="M1.92405 1.92405H37.4206C57.6105 1.92405 73.9776 18.2912 73.9776 38.481V74.076H38.481C18.2912 74.076 1.92405 57.7088 1.92405 37.519V1.92405Z" stroke="black" stroke-width="3.8481"/>
<path d="M61.487 38C61.487 51.0195 50.9469 61.5696 37.9504 61.5696C24.9538 61.5696 14.4137 51.0195 14.4137 38C14.4137 24.9805 24.9538 14.4303 37.9504 14.4303C50.9469 14.4303 61.487 24.9805 61.487 38Z" stroke="black" stroke-width="3.8481"/>
<rect x="36.5091" y="16.3543" width="81.6663" height="43.2911" fill="white"/>
<path d="M38.0088 36.5183C37.8807 36.4029 37.6565 36.2618 37.3363 36.0951C37.016 35.9283 36.6445 35.7872 36.2218 35.6718C35.799 35.5435 35.3635 35.4794 34.9151 35.4794C34.313 35.4794 33.8583 35.5691 33.5508 35.7487C33.2562 35.9155 33.1089 36.1656 33.1089 36.4991C33.1089 36.7556 33.2049 36.9609 33.3971 37.1148C33.6021 37.2687 33.8967 37.4034 34.281 37.5189C34.6781 37.6343 35.1585 37.7626 35.7222 37.9037C36.478 38.0961 37.1313 38.3141 37.6822 38.5578C38.2458 38.8016 38.675 39.1222 38.9696 39.5199C39.2771 39.9175 39.4308 40.4498 39.4308 41.1168C39.4308 41.7197 39.3155 42.2328 39.0849 42.6561C38.8543 43.0665 38.5341 43.4 38.1241 43.6566C37.727 43.9131 37.2658 44.0991 36.7406 44.2146C36.2282 44.33 35.6902 44.3877 35.1265 44.3877C34.2554 44.3877 33.3907 44.2659 32.5324 44.0221C31.6741 43.7784 30.9119 43.4449 30.2457 43.0216L31.2834 41.0014C31.4627 41.1681 31.7381 41.3541 32.1096 41.5594C32.494 41.7518 32.9487 41.9249 33.474 42.0789C34.012 42.2199 34.5756 42.2905 35.1649 42.2905C35.7414 42.2905 36.1769 42.2071 36.4716 42.0404C36.779 41.8736 36.9328 41.6427 36.9328 41.3477C36.9328 41.0655 36.8047 40.841 36.5484 40.6743C36.3051 40.5075 35.9656 40.36 35.53 40.2318C35.0945 40.1035 34.5756 39.9624 33.9736 39.8085C33.2434 39.6161 32.6349 39.398 32.1481 39.1543C31.6741 38.8978 31.3154 38.5835 31.072 38.2115C30.8414 37.8267 30.7261 37.3585 30.7261 36.807C30.7261 36.063 30.9119 35.4409 31.2834 34.9406C31.6677 34.4404 32.1801 34.062 32.8206 33.8054C33.474 33.5489 34.1849 33.4206 34.9536 33.4206C35.7734 33.4206 36.5292 33.5425 37.221 33.7862C37.9128 34.0171 38.5084 34.2929 39.008 34.6135L38.0088 36.5183Z" fill="black"/>
<path d="M41.3183 44.253V33.4976H43.6434V44.253H41.3183Z" fill="black"/>
<path d="M55.9766 44.253V37.5381L52.9021 42.4637H51.6339L48.5786 37.5381V44.253H46.2535V33.4976H48.7708L52.2872 39.3082L55.8037 33.4976H58.2825V44.253H55.9766Z" fill="black"/>
<path d="M60.9092 44.253V33.4976H65.9629C66.6931 33.4976 67.3464 33.6772 67.9229 34.0363C68.4994 34.3955 68.9477 34.8508 69.268 35.4024C69.6011 35.9411 69.7676 36.5119 69.7676 37.1148C69.7676 37.7305 69.6075 38.3141 69.2872 38.8657C68.9798 39.4172 68.5506 39.8662 67.9998 40.2125C67.4489 40.5589 66.802 40.732 66.059 40.732H63.2343V44.253H60.9092ZM63.2343 38.6925H65.9053C66.1871 38.6925 66.4433 38.6348 66.6739 38.5194C66.9045 38.3911 67.0838 38.2115 67.2119 37.9806C67.34 37.7369 67.4041 37.4483 67.4041 37.1148C67.4041 36.7685 67.3272 36.4799 67.1735 36.249C67.0198 36.0181 66.8212 35.8449 66.5778 35.7295C66.3472 35.6012 66.091 35.5371 65.8092 35.5371H63.2343V38.6925Z" fill="black"/>
<path d="M71.5116 44.253V33.4976H73.8367V42.2135H79.3323V44.253H71.5116Z" fill="black"/>
<path d="M89.1386 42.2135V44.253H80.8567V33.4976H88.9849V35.5371H83.1817V37.8267H88.197V39.7315H83.1817V42.2135H89.1386Z" fill="black"/>
<path d="M104.222 35.5371H100.437V44.253H98.1118V35.5371H94.3071V33.4976H104.222V35.5371Z" fill="black"/>
<path d="M114.134 42.2135V44.253H105.852V33.4976H113.98V35.5371H108.177V37.8267H113.192V39.7315H108.177V42.2135H114.134Z" fill="black"/>
<path d="M118.46 37.8075V44.253H116.135V33.4976H117.942L124.129 40.1163V33.4976H126.454V44.253H124.571L118.46 37.8075Z" fill="black"/>
<path d="M138 35.5371H134.214V44.253H131.889V35.5371H128.085V33.4976H138V35.5371Z" fill="black"/>
</svg>
